<mxfile host="app.diagrams.net" modified="2020-12-30T08:56:31.929Z" agent="5.0 (Macintosh; Intel Mac OS X 10_15_2) AppleWebKit/537.36 (KHTML, like Gecko) Chrome/87.0.4280.88 Safari/537.36" etag="DdESfvPj_Al4qv8vRmLH" version="14.1.3" type="github">
  <diagram name="Page-1" id="3e8102d1-ef87-2e61-34e1-82d9a586fe2e">
    <mxGraphModel dx="1298" dy="1604" grid="1" gridSize="10" guides="1" tooltips="1" connect="1" arrows="1" fold="1" page="1" pageScale="1" pageWidth="1100" pageHeight="850" background="#ffffff" math="0" shadow="0">
      <root>
        <mxCell id="0" />
        <mxCell id="1" parent="0" />
        <mxCell id="woPKbzubqAw81bapfNfN-11" value="" style="rounded=0;whiteSpace=wrap;html=1;fillColor=#fad7ac;strokeColor=#b46504;" parent="1" vertex="1">
          <mxGeometry x="252" y="200" width="160" height="790" as="geometry" />
        </mxCell>
        <mxCell id="70666756c84bb93c-5" value="&lt;font color=&quot;#0f3fff&quot;&gt;sssss&lt;/font&gt;" style="shadow=0;dashed=0;html=1;strokeColor=#001DBC;fillColor=#0050ef;labelPosition=center;verticalLabelPosition=bottom;verticalAlign=top;shape=mxgraph.office.users.users;rounded=0;comic=0;fontFamily=Verdana;fontSize=14;fontColor=#ffffff;" parent="1" vertex="1">
          <mxGeometry x="120" y="150" width="46" height="50" as="geometry" />
        </mxCell>
        <mxCell id="70666756c84bb93c-6" value="&lt;font color=&quot;#031cff&quot;&gt;客诉群机器人&lt;/font&gt;" style="shadow=0;dashed=0;html=1;strokeColor=#001DBC;fillColor=#0050ef;labelPosition=center;verticalLabelPosition=bottom;verticalAlign=top;shape=mxgraph.office.users.call_center_agent;rounded=0;comic=0;fontFamily=Verdana;fontSize=14;fontColor=#ffffff;" parent="1" vertex="1">
          <mxGeometry x="276" y="480" width="46" height="55" as="geometry" />
        </mxCell>
        <mxCell id="advHySqh0heDHo4-ZK-9-11" value="" style="edgeStyle=orthogonalEdgeStyle;rounded=0;orthogonalLoop=1;jettySize=auto;html=1;" parent="1" source="70666756c84bb93c-8" target="70666756c84bb93c-6" edge="1">
          <mxGeometry relative="1" as="geometry" />
        </mxCell>
        <mxCell id="70666756c84bb93c-8" value="&lt;font color=&quot;#1231ff&quot;&gt;自动处理回复&lt;/font&gt;" style="shadow=0;dashed=0;html=1;strokeColor=#001DBC;fillColor=#0050ef;labelPosition=center;verticalLabelPosition=bottom;verticalAlign=top;shape=mxgraph.office.services.central_management_service;rounded=0;comic=0;fontFamily=Verdana;fontSize=14;fontColor=#ffffff;" parent="1" vertex="1">
          <mxGeometry x="276" y="380" width="51" height="54" as="geometry" />
        </mxCell>
        <mxCell id="70666756c84bb93c-12" value="Global&lt;div&gt;Partnerships&lt;/div&gt;" style="shadow=0;dashed=0;html=1;strokeColor=none;fillColor=#ffffff;labelPosition=center;verticalLabelPosition=bottom;verticalAlign=top;shape=mxgraph.office.concepts.globe_internet;rounded=0;comic=0;fontFamily=Verdana;fontSize=14;fontColor=#FFFFFF;" parent="1" vertex="1">
          <mxGeometry x="131" y="-320" width="49" height="49" as="geometry" />
        </mxCell>
        <mxCell id="70666756c84bb93c-13" value="Environmental&lt;div&gt;Awareness&lt;/div&gt;" style="shadow=0;dashed=0;html=1;strokeColor=none;shape=mxgraph.mscae.general.continuous_cycle;fillColor=#ffffff;rounded=0;comic=0;fontFamily=Verdana;fontSize=14;fontColor=#FFFFFF;verticalAlign=top;labelPosition=center;verticalLabelPosition=bottom;align=center;" parent="1" vertex="1">
          <mxGeometry x="240" y="-325" width="48" height="50" as="geometry" />
        </mxCell>
        <mxCell id="70666756c84bb93c-15" value="Finance" style="shape=mxgraph.signs.travel.euro;html=1;fillColor=#ffffff;strokeColor=none;verticalLabelPosition=bottom;verticalAlign=top;align=center;rounded=0;shadow=0;dashed=0;comic=0;fontFamily=Verdana;fontSize=14;fontColor=#FFFFFF;" parent="1" vertex="1">
          <mxGeometry x="327" y="-271" width="45" height="51" as="geometry" />
        </mxCell>
        <mxCell id="woPKbzubqAw81bapfNfN-2" value="" style="rounded=0;whiteSpace=wrap;html=1;fillColor=#dae8fc;strokeColor=#6c8ebf;" parent="1" vertex="1">
          <mxGeometry x="470" y="190" width="120" height="60" as="geometry" />
        </mxCell>
        <mxCell id="woPKbzubqAw81bapfNfN-3" value="" style="rounded=0;whiteSpace=wrap;html=1;fillColor=#fad7ac;strokeColor=#b46504;" parent="1" vertex="1">
          <mxGeometry x="430" y="160" width="550" height="440" as="geometry" />
        </mxCell>
        <mxCell id="woPKbzubqAw81bapfNfN-4" value="1. 主题" style="rounded=0;whiteSpace=wrap;html=1;fillColor=#008a00;strokeColor=#005700;fontColor=#ffffff;glass=0;sketch=0;shadow=1;" parent="1" vertex="1">
          <mxGeometry x="460" y="170" width="120" height="60" as="geometry" />
        </mxCell>
        <mxCell id="woPKbzubqAw81bapfNfN-5" value="2. 混排激励/打压" style="rounded=0;whiteSpace=wrap;html=1;fillColor=#008a00;strokeColor=#005700;fontColor=#ffffff;glass=0;sketch=0;shadow=1;" parent="1" vertex="1">
          <mxGeometry x="610" y="170" width="120" height="60" as="geometry" />
        </mxCell>
        <mxCell id="woPKbzubqAw81bapfNfN-6" value="3.主搜" style="rounded=0;whiteSpace=wrap;html=1;fillColor=#008a00;strokeColor=#005700;fontColor=#ffffff;glass=0;sketch=0;shadow=1;" parent="1" vertex="1">
          <mxGeometry x="750" y="170" width="120" height="60" as="geometry" />
        </mxCell>
        <mxCell id="woPKbzubqAw81bapfNfN-7" value="4.猜你喜欢" style="rounded=0;whiteSpace=wrap;html=1;fillColor=#008a00;strokeColor=#005700;fontColor=#ffffff;glass=0;sketch=0;shadow=1;" parent="1" vertex="1">
          <mxGeometry x="460" y="250" width="120" height="60" as="geometry" />
        </mxCell>
        <mxCell id="woPKbzubqAw81bapfNfN-8" value="5.首页推荐" style="rounded=0;whiteSpace=wrap;html=1;fillColor=#008a00;strokeColor=#005700;fontColor=#ffffff;glass=0;sketch=0;shadow=1;" parent="1" vertex="1">
          <mxGeometry x="610" y="250" width="120" height="60" as="geometry" />
        </mxCell>
        <mxCell id="woPKbzubqAw81bapfNfN-9" value="6.关注" style="rounded=0;whiteSpace=wrap;html=1;fillColor=#008a00;strokeColor=#005700;fontColor=#ffffff;glass=0;sketch=0;shadow=1;" parent="1" vertex="1">
          <mxGeometry x="750" y="250" width="120" height="60" as="geometry" />
        </mxCell>
        <mxCell id="woPKbzubqAw81bapfNfN-13" value="无广告补位" style="rounded=0;whiteSpace=wrap;html=1;fillColor=#008a00;strokeColor=#005700;fontColor=#ffffff;shadow=1;" parent="1" vertex="1">
          <mxGeometry x="880" y="170" width="90" height="140" as="geometry" />
        </mxCell>
        <mxCell id="advHySqh0heDHo4-ZK-9-5" value="" style="endArrow=none;html=1;exitX=-0.002;exitY=0.418;exitDx=0;exitDy=0;entryX=0.998;entryY=0.43;entryDx=0;entryDy=0;entryPerimeter=0;exitPerimeter=0;" parent="1" source="woPKbzubqAw81bapfNfN-3" target="woPKbzubqAw81bapfNfN-3" edge="1">
          <mxGeometry width="50" height="50" relative="1" as="geometry">
            <mxPoint x="490" y="400" as="sourcePoint" />
            <mxPoint x="540" y="350" as="targetPoint" />
            <Array as="points" />
          </mxGeometry>
        </mxCell>
        <mxCell id="advHySqh0heDHo4-ZK-9-10" value="" style="edgeStyle=orthogonalEdgeStyle;rounded=0;orthogonalLoop=1;jettySize=auto;html=1;entryX=0.02;entryY=0.63;entryDx=0;entryDy=0;entryPerimeter=0;" parent="1" source="70666756c84bb93c-7" target="70666756c84bb93c-8" edge="1">
          <mxGeometry relative="1" as="geometry" />
        </mxCell>
        <mxCell id="70666756c84bb93c-7" value="&lt;b&gt;&lt;font color=&quot;#033dff&quot;&gt;舆情系统&lt;/font&gt;&lt;/b&gt;&lt;div&gt;Group&lt;/div&gt;" style="shadow=0;dashed=0;html=1;strokeColor=#001DBC;fillColor=#0050ef;labelPosition=center;verticalLabelPosition=bottom;verticalAlign=top;shape=mxgraph.office.users.response_group;rounded=0;comic=0;fontFamily=Verdana;fontSize=14;fontColor=#ffffff;" parent="1" vertex="1">
          <mxGeometry x="115" y="387" width="58" height="54" as="geometry" />
        </mxCell>
        <mxCell id="VXvmvBLJVKdwsxiMPEZc-4" value="非鱼" style="shape=ext;double=1;rounded=0;whiteSpace=wrap;html=1;" vertex="1" parent="1">
          <mxGeometry x="279" y="180" width="106" height="40" as="geometry" />
        </mxCell>
        <mxCell id="VXvmvBLJVKdwsxiMPEZc-6" value="Actor" style="shape=umlActor;verticalLabelPosition=bottom;verticalAlign=top;html=1;outlineConnect=0;" vertex="1" parent="1">
          <mxGeometry x="180" y="250" width="30" height="60" as="geometry" />
        </mxCell>
        <mxCell id="VXvmvBLJVKdwsxiMPEZc-7" value="" style="shape=crossbar;whiteSpace=wrap;html=1;rounded=1;" vertex="1" parent="1">
          <mxGeometry x="254" y="320" width="158" height="20" as="geometry" />
        </mxCell>
        <mxCell id="VXvmvBLJVKdwsxiMPEZc-9" value="客诉" style="text;html=1;strokeColor=none;fillColor=none;align=center;verticalAlign=middle;whiteSpace=wrap;rounded=0;" vertex="1" parent="1">
          <mxGeometry x="300" y="340" width="40" height="20" as="geometry" />
        </mxCell>
        <mxCell id="VXvmvBLJVKdwsxiMPEZc-11" value="" style="shape=crossbar;whiteSpace=wrap;html=1;rounded=1;" vertex="1" parent="1">
          <mxGeometry x="255" y="560" width="158" height="20" as="geometry" />
        </mxCell>
        <mxCell id="VXvmvBLJVKdwsxiMPEZc-12" value="排查" style="text;html=1;strokeColor=none;fillColor=none;align=center;verticalAlign=middle;whiteSpace=wrap;rounded=0;" vertex="1" parent="1">
          <mxGeometry x="300" y="590" width="40" height="20" as="geometry" />
        </mxCell>
        <mxCell id="VXvmvBLJVKdwsxiMPEZc-13" value="" style="shape=crossbar;whiteSpace=wrap;html=1;rounded=1;" vertex="1" parent="1">
          <mxGeometry x="255" y="700" width="158" height="20" as="geometry" />
        </mxCell>
        <mxCell id="VXvmvBLJVKdwsxiMPEZc-14" value="调试" style="text;html=1;strokeColor=none;fillColor=none;align=center;verticalAlign=middle;whiteSpace=wrap;rounded=0;" vertex="1" parent="1">
          <mxGeometry x="300" y="720" width="40" height="20" as="geometry" />
        </mxCell>
        <mxCell id="VXvmvBLJVKdwsxiMPEZc-15" value="" style="shape=crossbar;whiteSpace=wrap;html=1;rounded=1;" vertex="1" parent="1">
          <mxGeometry x="252" y="820" width="158" height="20" as="geometry" />
        </mxCell>
        <mxCell id="VXvmvBLJVKdwsxiMPEZc-17" value="流量调控- 新业务扶持" style="text;html=1;strokeColor=none;fillColor=none;align=center;verticalAlign=middle;whiteSpace=wrap;rounded=0;" vertex="1" parent="1">
          <mxGeometry x="266" y="840" width="130" height="20" as="geometry" />
        </mxCell>
      </root>
    </mxGraphModel>
  </diagram>
</mxfile>
